<svg xmlns="http://www.w3.org/2000/svg" xmlns:xlink="http://www.w3.org/1999/xlink" width="74" height="74" viewBox="0 0 74 74">
  <defs>
    <clipPath id="clip-path">
      <rect id="Rectangle_2540" data-name="Rectangle 2540" width="38" height="38" transform="translate(-0.333 -0.333)" fill="#0a64f9"/>
    </clipPath>
  </defs>
  <g id="No_Data" data-name="No Data" transform="translate(-2299 -1140)">
    <circle id="Ellipse_332" data-name="Ellipse 332" cx="37" cy="37" r="37" transform="translate(2299 1140)" fill="#e9e9e9"/>
    <g id="Group_6354" data-name="Group 6354" transform="translate(2317.333 1160.333)">
      <g id="Group_6353" data-name="Group 6353" clip-path="url(#clip-path)">
        <path id="Path_7301" data-name="Path 7301" d="M36.528,6.588H35.137V3.477A1.281,1.281,0,0,0,33.856,2.2H13.177V1.025A1.025,1.025,0,0,0,12.152,0H1.025A1.025,1.025,0,0,0,0,1.025v28.4a1.318,1.318,0,0,0,1.318,1.318H9.35a9.882,9.882,0,0,0,18.634,0h8.032a1.318,1.318,0,0,0,1.318-1.318V7.393a.805.805,0,0,0-.805-.805M32.941,4.9V6.588H13.177V4.978a.586.586,0,0,1,.586-.586H32.429a.512.512,0,0,1,.512.512M18.667,35.137a7.686,7.686,0,1,1,7.686-7.686,7.7,7.7,0,0,1-7.686,7.686m9.821-6.588a9.882,9.882,0,1,0-19.642,0H2.928a.732.732,0,0,1-.732-.732V13.982A.805.805,0,0,1,3,13.177H34.332a.805.805,0,0,1,.805.805V27.817a.732.732,0,0,1-.732.732Z" fill="#0a64f9"/>
        <rect id="Rectangle_2538" data-name="Rectangle 2538" width="2" height="3" transform="translate(17.667 30.667)" fill="#0a64f9"/>
        <rect id="Rectangle_2539" data-name="Rectangle 2539" width="2" height="7" transform="translate(17.667 21.667)" fill="#0a64f9"/>
      </g>
    </g>
  </g>
</svg>
