<svg xmlns="http://www.w3.org/2000/svg" xmlns:xlink="http://www.w3.org/1999/xlink" width="24" height="24" viewBox="0 0 24 24">
  <defs>
    <clipPath id="clip-path">
      <rect id="Rectangle_4167" data-name="Rectangle 4167" width="24" height="24" transform="translate(-19896 13780)" fill="none" stroke="#707070" stroke-width="1"/>
    </clipPath>
  </defs>
  <g id="Mask_Group_4786" data-name="Mask Group 4786" transform="translate(19896 -13780)" clip-path="url(#clip-path)">
    <g id="email_2_" data-name="email (2)" transform="translate(-19894 13720.734)">
      <path id="Path_8319" data-name="Path 8319" d="M11.671,176.96a3.008,3.008,0,0,1-3.343,0L.133,171.5c-.045-.03-.09-.062-.133-.094v8.953A1.841,1.841,0,0,0,1.841,182.2H18.159A1.841,1.841,0,0,0,20,180.355V171.4c-.043.033-.088.064-.133.095Z" transform="translate(0 -102.951)" fill="#0a64f9"/>
      <path id="Path_8320" data-name="Path 8320" d="M.783,67.57l8.2,5.464a1.836,1.836,0,0,0,2.043,0l8.2-5.464A1.755,1.755,0,0,0,20,66.107a1.843,1.843,0,0,0-1.841-1.841H1.841A1.843,1.843,0,0,0,0,66.107,1.754,1.754,0,0,0,.783,67.57Z" fill="#0a64f9"/>
    </g>
  </g>
</svg>
