<svg xmlns="http://www.w3.org/2000/svg" width="572.112" height="952.841" viewBox="0 0 572.112 952.841">
  <g id="White" transform="translate(-10.8 969.676) rotate(-90)" opacity="0.12" style="mix-blend-mode: normal;isolation: isolate">
    <path id="Union_1" data-name="Union 1" d="M.008,568.4c.147-7.784.021-15.587.021-23.349h0V370.33h0V345.78h0V67h0V14.2h0C.03,10.37.177,6.5.008,2.671-.076.484.451,0,2.533,0c9.655.084,19.374.084,29.029.084H904.029c14.956,0,29.891,0,44.847-.084h.147l-.147,1.536q-22.434.095-44.847.1L881.583,1.6H861.347q.373.887.8,1.738l.544.723c3.786,5.469,8.33,9.929,14.346,12.516a119.141,119.141,0,0,0,16.618,5.511c8.919,2.461,17.881,4.4,26.358,8.288,8.372,3.786,15.84,8.814,20.594,17.523a65.059,65.059,0,0,1,7.257,41.124c-3.008,21.078-12.748,37.022-30.859,46.993-13.189,7.278-27.177,12.116-41.377,16.239-9.739,2.861-19.647,5.175-29.008,9.382-12.5,5.533-20.11,15.272-22.824,29.555-1.556,8.141-1.262,16.282-1.346,24.464a78.346,78.346,0,0,0,3.134,20.825C831.6,259.01,845.4,275.038,863.514,287.3c4.689,3.17,9.525,6.033,14.444,8.723,3.662,1.932,7.347,3.843,11.016,5.736,5.578,2.8,11.2,5.5,16.779,8.3,11.254,5.679,22.3,11.674,32.479,19.247a49.893,49.893,0,0,1,11.489,10.927q.278.254.564.5V268.37a1.274,1.274,0,0,0-.4-.175c-3.664.914-7.307,1.833-10.981,2.783a128.692,128.692,0,0,1-31.259,4.249,92.937,92.937,0,0,1-25.516-3.513,59.881,59.881,0,0,1-23.42-13.359,53.984,53.984,0,0,1-15.734-22.777,49.847,49.847,0,0,1-3.043-13.15,55.4,55.4,0,0,1,.266-12.588,41.1,41.1,0,0,1,9-21.941,37.573,37.573,0,0,1,12.375-10.213,95.748,95.748,0,0,1,44.763-10.518,127.908,127.908,0,0,1,18.448,1.346c8.752,1.357,16.824,5.234,25.247,7.984a.963.963,0,0,0,.248-.117V129.536q0-63.138.042-126.192a5.749,5.749,0,0,0-.147-1.7,3.506,3.506,0,0,0-1.157-.1V0c2.482,0,2.819.82,2.819,3.344q-.095,86.771-.042,173.711V522.71c0,15.188-.063,30.48.042,45.6.042,2.462-.673,2.756-2.756,2.756H119.175q-58.311,0-116.642.042C.45,571.112-.033,570.628.008,568.4Zm1.556-22.8v6.437c.042,5.469.063,10.938-.042,16.408v1.073a5.688,5.688,0,0,0,1.009.084c38.705-.042,77.516-.042,116.222-.042a31.53,31.53,0,0,1,2.963-1.491,8.3,8.3,0,0,1,3.768-1.938,37.292,37.292,0,0,1,7.551-.778v0a33.524,33.524,0,0,1,13.088,2.636,44.608,44.608,0,0,1,6.1,1.571h35.8a1.524,1.524,0,0,0,.06-.242,11.8,11.8,0,0,0-.985-1.84c-6.963-10.055-16.092-17.291-26.063-23.538-8.225-5.217-16.555-10.224-23.623-17.06-10.181-9.971-14.83-23.139-17.459-37.19-2.861-15.124-3.471-30.712-5.617-45.921-4.649-32.9-20.446-58.374-45.857-76.969C48.54,352.3,25.462,348.314,2.043,345.978a2.274,2.274,0,0,0-.478.371V369.74a2.42,2.42,0,0,0,.552.4c5.821-.482,11.627-.633,17.433-.633,2.651,0,5.322.042,7.973.084a59.992,59.992,0,0,1,30,8.246c26.4,15.692,38.306,40.893,40.746,72.067a207.788,207.788,0,0,1,.189,30.712c-.778,10.581-.82,21.183-2.335,31.742-1.2,7.93-2.8,15.651-9.108,21.414-4.4,4.123-9.571,5.953-15,7.257a170.8,170.8,0,0,1-41.04,4.712c-3.829,0-7.657.042-11.485.042-5.812,0-11.608-.085-17.446-.558A3.173,3.173,0,0,0,1.565,545.6ZM950.2,569.556a3.185,3.185,0,0,0,.126-1.242c-.084-10.77-.042-21.666-.042-32.563v-9.487l-.369.344a5.558,5.558,0,0,1-1.187,1.444c-5.512,4.754-10.939,9.445-17.229,13.084-11.191,6.689-23.37,10.16-35.36,14.62-6.753,2.482-13.526,5.133-19.058,10.265-.8.754-1.6,1.492-2.416,2.182q-.626.679-1.2,1.352h75.622c.61,0,.947-.042,1.052-.042Zm-111.089,0h30.8a17.286,17.286,0,0,0,3.727-2.48,36.846,36.846,0,0,1,7.715-6.523c5.722-3.534,11.906-5.616,17.986-7.93,7.973-2.966,16.155-5.343,23.917-9.109,9.46-4.443,17.731-10.679,25.429-17.831.271-.479.516-1.021.782-1.605.231-.589.525-1.2.82-1.788V473.256q-.2.249-.4.5a12.316,12.316,0,0,1-1.307,2.4c-4.4,6.226-8.814,12.369-13.063,18.7a87.761,87.761,0,0,1-44.511,34.5c-8.94,3.155-18.069,5.659-26.988,8.73-12.895,4.5-21.709,12.916-24.17,27.662a18.527,18.527,0,0,1-.673,2.882Q839.139,569.091,839.112,569.556Zm-31.826,0h29.638a4.342,4.342,0,0,0,.777-1.357c1.224-14.261,9.8-25.992,23.057-30.785,10.328-3.639,20.825-6.753,31.153-10.434a82.017,82.017,0,0,0,31.49-19.858c6.29-6.5,11.275-14.093,16.555-21.5,2.938-4.145,5.5-8.614,8.614-12.655.171-.42.332-.852.495-1.291a20.9,20.9,0,0,1,1.22-2.861V417.112l-.4-.341c-1.308-.271-2.242-1.644-3.243-2.456-7.257-6.353-14.43-12.874-21.308-19.626-12.411-12.285-23.539-26.021-34.33-39.947A282.3,282.3,0,0,0,862.757,323c-10.266-9.676-20.741-18.995-30.333-29.492a137.037,137.037,0,0,1-20.53-30.27c-7.51-14.725-10.938-30.775-13.674-46.993-1.388-8.183-2.566-16.344-5.721-24.043-2.462-5.953-6.816-9.193-12.348-9.193a15.158,15.158,0,0,0-3.428.378,29.35,29.35,0,0,0-9.067,3.7c-9.15,5.133-13.757,14.073-17.228,23.875a89.858,89.858,0,0,0-4.274,19.485q-.256,2.353-.438,4.832c-.3,3.841-.65,7.8-1.1,11.846q-.046.535-.094,1.069a135.058,135.058,0,0,1-17.838,57.658c-7.3,12.579-16.66,23.1-28.776,30.564-10.939,6.732-22.529,9.214-34.435,9.214a104.944,104.944,0,0,1-16.281-1.367c-11.423-1.746-20.089-8.246-23.686-20.594a83.885,83.885,0,0,1-2.861-19.373c-.589-12.116-.674-24.254-1.388-36.371a147.1,147.1,0,0,0-8.014-39.736,321.5,321.5,0,0,0-18.869-42.281c-6.878-13.463-15.86-24.7-29.071-31.49-6.248-3.239-11.149-5.238-15.587-5.238-5.722,0-10.581,3.408-16.3,12.18a348.507,348.507,0,0,1-28.482,37.927c-10.5,12.116-22.382,22.613-34.73,32.584-11,8.73-20.72,18.722-27.325,31.743-4.207,8.267-7.783,16.891-12.2,25.032-8.9,16.281-20.783,28.629-38.032,34.582-11.675,3.976-23.728,6.836-35.361,11.254-19.563,7.468-34.877,19.9-42.323,41.461-3.934,11.338-5.953,22.95-3.871,34.982a58.361,58.361,0,0,0,12.937,27.177,410.658,410.658,0,0,1,36.455,51.537,105.633,105.633,0,0,0,10.286,15c6.1,7.173,13.5,11.927,22.8,11.927h.968c14.2-.568,25.727-7.762,35.908-17.628,9.4-9,15.208-20.867,21.057-32.541,8.1-16.134,18.406-30.481,31.384-42.345,19-17.249,38.18-34.287,57.217-51.41,12.853-11.612,27.43-19.037,44.427-19.037,1.22,0,2.419.021,3.682.105,9.36.547,17.922,3.2,24.611,11.044A70.844,70.844,0,0,1,620.933,380.7c6.878,14.178,13.084,28.755,21.645,41.9,6.248,9.571,13.463,17.965,23.118,23.728,7.026,4.229,14.241,6.689,21.687,6.689a34.742,34.742,0,0,0,13.715-2.861,103.6,103.6,0,0,0,12.937-6.543c8.919-5.427,17.628-11.38,26.989-16.071a68.436,68.436,0,0,1,30.648-7.51,64.174,64.174,0,0,1,13.442,1.41,46.439,46.439,0,0,1,34.206,28.4q.458,1.089.867,2.224a58.673,58.673,0,0,1,2.706,10.31c1.536,9.087,1.2,18.238.147,27.3a41.847,41.847,0,0,1-8.277,21.431,32.973,32.973,0,0,1-4.425,4.773,38.532,38.532,0,0,1-17.548,8.925c-13.21,2.945-26.546,2.377-39.819,3.387-5.911.421-11.864-.147-17.754.778-14.978,2.209-27.725,8.625-36.875,22.024a89.453,89.453,0,0,0-8.393,15.8,10.737,10.737,0,0,1-.843,1.682l-.44,1.073h29.239l.5-.379a10.787,10.787,0,0,0,1.378-1.015c5.327-9.924,14.146-15,24.285-17.833a64.573,64.573,0,0,1,17.775-2.377v0a101.491,101.491,0,0,1,19.415,2.083c11.141,2.212,20.149,7.122,24.685,18.41A6.955,6.955,0,0,0,807.286,569.556Zm-86.519,0h83.995c-.039-.1-.077-.2-.117-.3a8.193,8.193,0,0,1-1.292-2.074,22.813,22.813,0,0,0-12.873-12.348,78.932,78.932,0,0,0-27.43-5.132,71.758,71.758,0,0,0-19.794,2.819c-8.73,2.482-16.366,7.11-21.372,15.5A5.723,5.723,0,0,1,721,569.1Q720.882,569.329,720.767,569.556Zm-74.844,0h40.009a5.575,5.575,0,0,0,1.827-1.785c1.321-3.083,2.633-6.174,4.105-9.2,7.593-15.5,19.268-25.537,35.339-29.891,12.411-3.408,25.137-2.083,37.7-2.756,9.676-.652,19.268-.967,28.629-3.26a36.608,36.608,0,0,0,15.674-7.773,35.178,35.178,0,0,0,4.673-5.1,37.986,37.986,0,0,0,5.758-12.079c2.671-9.3,3.092-18.847,2.377-28.335a66.3,66.3,0,0,0-2.508-14.548,52.454,52.454,0,0,0-2.639-6.718q-.3-.6-.616-1.2c-10.16-18.616-26.357-25.158-45.394-25.158h-.147a64.508,64.508,0,0,0-31.995,9.066c-10.371,6.058-20.552,12.453-31.028,18.364a41.1,41.1,0,0,1-20.341,5.7c-7.952,0-15.84-2.608-23.644-7.7-9.34-6.037-16.471-14.283-22.656-23.728-8.372-12.727-14.451-26.8-20.93-40.683a89.766,89.766,0,0,0-6.584-11.864c-5.091-7.362-11.4-12.789-20.194-14.493a58.366,58.366,0,0,0-10.665-1.01c-10.6,0-20.678,3.05-30.312,8.814-10.1,6.142-18.722,14.515-27.472,22.613-10.812,10.119-21.9,19.816-32.983,29.555-10.855,9.551-21.183,19.605-29.66,31.764-7.951,11.485-13.61,24.464-20.677,36.538-9.361,15.882-22.235,26.694-39,32.205a31.97,31.97,0,0,1-9.887,1.6c-9.97,0-19.415-4.9-25.957-13.61-4.943-6.521-9.3-13.421-13.5-20.3-8.2-13.273-16.766-26.147-26.758-37.969a118.721,118.721,0,0,1-11.464-15.419,58.023,58.023,0,0,1-7.72-39.379c2.188-15.545,7.951-29.155,18.259-40.493,8.2-9,18.7-14.431,29.7-18.743,11.779-4.607,24.043-7.362,35.991-11.57,13.315-4.648,23.392-13.715,31.406-25.726,6.1-9.066,10.265-19.415,15.1-29.3a91.861,91.861,0,0,1,14.956-22.234c9.613-10.476,21.225-18.364,31.553-27.914a257.589,257.589,0,0,0,24.275-25.958c8.751-10.56,16.261-22.193,24.212-33.51,4.291-6.058,9.151-9.066,14.809-9.066a18.893,18.893,0,0,1,5.868.968c12.937,4.312,23.939,11.717,32.269,23.349,7.8,10.938,13.21,23.286,18.974,35.4a172.916,172.916,0,0,1,16.976,76.632,212.509,212.509,0,0,0,2.061,32.836c2.146,14.389,8.772,22.592,22.088,25.643a75.252,75.252,0,0,0,16.576,1.83,72.385,72.385,0,0,0,18.953-2.5c22.024-6.016,36.223-22,47.077-42.239,9.136-17.062,12.971-35.565,14.939-54.592l.122-1.509c.258-3.246.522-6.526.865-9.813.975-11.265,3.246-22.151,8.391-32.3,5.048-9.824,12.453-16.218,22.382-19.164a18.373,18.373,0,0,1,5.216-.778c6.353,0,11.234,3.976,14.052,11.149,3.934,10.055,5.049,20.825,6.921,31.343,3.7,21.919,11.591,41.755,24.528,59.194,10.518,14.093,23.622,25.474,36.286,37.274A285.458,285.458,0,0,1,889.008,349.4c8.183,10.139,16.134,20.383,24.612,30.228,11.212,12.993,23.847,24.39,36.665,35.463V343.929a29.194,29.194,0,0,0-1.624-2.593c-2.217-2.031-4-4.594-6.286-6.557a148.322,148.322,0,0,0-25.705-17.018c-9.374-4.936-18.811-9.708-28.234-14.561-3.6-1.8-7.2-3.657-10.767-5.6q-3.179-1.674-6.35-3.378a98.868,98.868,0,0,1-36.181-32.31c-14.178-21.12-16.661-44.911-13.126-69.838,2.314-16.492,11.38-27.136,25.811-32.983,9.7-3.892,19.773-6.4,29.744-9.256,14.2-4.165,28.188-9.129,41.145-16.871,6.226-3.765,12.011-8.288,16.113-14.472,11.254-16.828,14.788-35.508,9.886-55.723-3.429-14.031-10.938-24.317-23.728-30.018a115.626,115.626,0,0,0-16.47-5.911c-9.782-2.629-19.816-4.523-29.029-8.982-6.211-3.106-11.524-7.483-14.777-13.955A13.577,13.577,0,0,0,858.592,1.6h-29.45a4.284,4.284,0,0,0-.728,1.239,79.2,79.2,0,0,1-1.8,12.266c-3.6,17.691-6.058,20.152-22.971,23.013-9.592,1.6-19.331,2.145-29.008,3.008-7.257.673-14.472,1.409-21.709,1.409a82.158,82.158,0,0,1-12.2-.82C717.674,38.3,701.2,25.589,691.377,3.751a5.62,5.62,0,0,0-1.91-2.153H658.419a1.059,1.059,0,0,0-.177.382,67.335,67.335,0,0,0,9.1,18.991C675.1,32.794,685.554,41.713,697,49.159c11.464,7.51,23.728,12.979,37.3,14.346a132.751,132.751,0,0,0,13.273.568c4.1,0,8.183-.126,12.264-.126,1.346,0,2.692,0,4.018.084a58.123,58.123,0,0,1,17.186,2.44c9,2.945,14.956,9.234,16.849,19.352a77.545,77.545,0,0,1,.779,20.594c-1.115,15.167-7.362,26.926-18.6,35.8-6.605,5.238-13.61,9.929-20.384,14.872-17.312,12.6-28.1,29.786-32.458,51.726-2.629,13.526-2.418,27.241-3.155,40.935-.82,14.451-3.429,28.251-10.181,40.851-8.141,15.251-18.974,26.694-36.139,29.639a29.83,29.83,0,0,1-4.881.421c-12.894,0-24.717-8.6-29.029-21.835-3.2-10.076-4.06-20.552-4.838-31.006-.541-7.634-.964-15.313-1.756-22.943q-.263-2.37-.542-4.716c-.3-2.351-.643-4.695-1.046-7.029-1.594-9.852-3.159-19.71-4.6-29.592-.929-5.213-1.61-10.509-2.175-15.792-.994-7.711-1.879-15.44-2.609-23.192a79.806,79.806,0,0,0-1.769-10.894,83.039,83.039,0,0,0-5.067-14.584,75.4,75.4,0,0,0-14.094-20.317c-5.343-5.616-10.9-11.17-16.176-16.891a53.685,53.685,0,0,1-10.96-17.838c-3.449-9-5.469-18.448-7.467-27.809-4.025-18.388-10.9-35.7-17.117-53.206A5.542,5.542,0,0,0,552.147,1.6H485.885A14.037,14.037,0,0,0,482.1,3.543c-1.728,1.668-3.459,3.339-5.175,5.018-5.343,5.2-11.485,9.55-15.881,15.987a38.771,38.771,0,0,0-6.717,14.881,37.14,37.14,0,0,0-.506,5.453q0,.8.05,1.606c.484,8.73,2.987,17.018,6.142,25.054,5.385,13.673,11.233,27.177,16.576,40.893,4.618,11.847,8.452,23.965,9.068,36.908.029.555.05,1.108.061,1.662q.035,1.344.021,2.7c-.21,20.53-14.093,39.568-32.689,44.7-6.794,1.935-13.61,1.262-20.447,1.7-12.2.905-17.29,3.871-19.436,17.481a64.863,64.863,0,0,0-.763,8.869q.032,3.228-.034,6.409a115,115,0,0,1-.443,13.646c-1.073,9.361-2.482,18.638-6.08,27.283-6.247,14.851-17.67,23.581-31.28,29.576-14.872,6.542-30.459,11.3-44.574,19.858a93.63,93.63,0,0,0-27.7,25.011c-8.414,11.38-14.431,24.548-23.244,35.613-6.584,8.414-12.558,12.684-20.825,12.684a27.548,27.548,0,0,1-3.591-.244,29.887,29.887,0,0,1-6.419-1.441q-.706-.216-1.433-.461c-13.211-4.312-23.433-13.757-32.1-24.7-17.88-22.613-22.15-49.37-19.2-78.041,1.073-10.37,4.039-20.341,6.268-30.417,2.462-11.3,3.955-22.613,2.608-34.2-2.566-22.088-8.435-42.913-19.142-61.949-6.352-11.443-15.65-19.626-27.745-23.539a80.077,80.077,0,0,0-24.8-3.723c-3.976,0-7.993.274-12.011.674a148.172,148.172,0,0,0-55.471,17.228A131.364,131.364,0,0,1,2.512,171.775a2.273,2.273,0,0,0-.947.611v39.673a1.831,1.831,0,0,0,.5.25c.6-.125,1.19-.248,1.769-.376,19.584-3.871,38.579-9.7,55.807-20.973,11.548-7.573,22.255-16.492,34.162-23.56,12.642-7.488,25.957-12.431,40.346-12.431a62.98,62.98,0,0,1,7.909.484c10.6,1.346,19.857,5.721,26.82,14.241,12.558,15.251,18.07,33.762,19.29,53.767.82,12.916-1.515,25.369-4.564,37.779-3.471,14.136-5.659,28.482-5.133,43.207a258.97,258.97,0,0,0,2.777,29.071c3.282,20.973,10.539,40.01,23.518,56.333,7.278,9.213,14.7,18.406,22.108,27.515C236.258,429,245.808,440.23,257.4,449.233c11.57,8.961,21.751,19.1,30.06,31.637a263.7,263.7,0,0,0,21.372,28.292c11.738,13.547,25.727,24.065,39.441,35.024a48.822,48.822,0,0,1,16.664,23.59,12.282,12.282,0,0,0,1.406,1.589l.147.19h45.584a4.218,4.218,0,0,0,1.132-1.349,53.6,53.6,0,0,1,7.808-18.172c4.018-5.722,8.435-11.086,12.979-16.366a162.1,162.1,0,0,0,19.963-28.587c6.731-12.39,11.674-25.747,17.838-38.558A112.238,112.238,0,0,1,498,432.173c14.283-13.021,29.891-24.359,45.563-35.34a52.493,52.493,0,0,1,19.058-8.877,39.915,39.915,0,0,1,9.088-1.115,29.1,29.1,0,0,1,18.132,6.1,60.854,60.854,0,0,1,14.136,15.692c9.445,14.451,15.44,30.712,21.709,46.846,5.364,13.715,10.707,27.472,17.691,40.346a35.29,35.29,0,0,1,4.06,23.854,226.355,226.355,0,0,0-2.861,39.526c.066,3.074.574,6.161.686,9.292A3.077,3.077,0,0,0,645.923,569.556Zm-46.194,0h44.027q0-.358-.01-.716a3.609,3.609,0,0,1-.138-1.01c0-3.155-.82-6.31-.736-9.592.106-12.979.674-25.979,2.9-38.768,1.472-8.477-.231-16.134-4.249-23.476A252.9,252.9,0,0,1,628.7,467.933c-5.974-15.019-11.3-30.375-18.512-44.847-4.27-8.625-9.213-16.912-15.8-23.833-6.395-6.879-14.094-10.665-22.992-10.665-.484,0-.947,0-1.472.042a45.872,45.872,0,0,0-22.277,7.72c-12.832,8.372-24.717,17.965-36.875,27.326A153.032,153.032,0,0,0,484.855,448.9c-8.793,10.854-14.515,23.644-19.668,36.581-8.414,20.93-20.383,39.084-34.961,55.471-6.647,7.551-12.453,15.734-14.956,26.042a8.292,8.292,0,0,1-.586,1.657q-.109.452-.213.91h47.182a2.74,2.74,0,0,0,1.011-1.062c3.648-21.274,9.327-42.071,14.681-62.928,5.575-21.751,13.084-42.387,30.228-57.154,14.009-12.116,29.744-20.152,47.771-22.172.736-.063,1.494-.1,2.23-.1a16.849,16.849,0,0,1,11.906,4.8c7.657,7.321,7.657,16.745,7.278,26.295-.478,9.059-1.468,18.034-1.837,27.03q-.077,4.189.016,8.263a209.789,209.789,0,0,0,2.074,21.587c1.977,14.683,5.995,28.671,13.694,41.272,2.553,4.123,5.487,8.06,7.424,12.6A8.572,8.572,0,0,0,599.729,569.556Zm-135.7,0H597.142q-.135-.351-.28-.7c-1.324-1.694-2.231-3.727-3.381-5.508-4.459-7.11-8.961-14.326-11.779-22.4a159.2,159.2,0,0,1-8.345-50.7q-.02-1.26-.012-2.524c.009-6.08.292-12.2.8-18.344.673-8.224,1.725-16.471.379-24.758-1.556-10.16-8.919-16.66-18.07-16.66a20.041,20.041,0,0,0-2.714.189c-12.347,1.7-23.454,6.794-34.1,13.231a78.306,78.306,0,0,0-17.922,15.25c-8.856,10.287-14.872,22.4-18.743,35.719-6.983,23.98-13.189,48.192-17.922,72.888a16.1,16.1,0,0,1-.914,3.628Q464.087,569.214,464.03,569.556Zm-141,0H363.9q-.155-.537-.322-1.067a6.244,6.244,0,0,1-.582-1.1c-3.745-9.971-10.181-17.543-18.217-23.791-9.4-7.32-18.89-14.388-27.43-22.823a256.618,256.618,0,0,1-30.712-37.906c-7.93-11.927-17.144-22.3-28.482-30.691a127,127,0,0,1-15.8-14.473c-12.243-12.789-23.034-26.841-34.287-40.535A131.27,131.27,0,0,1,190.4,370.1c-9.781-20.215-12.559-42.3-13.568-64.642-.779-15.209,1.536-30.123,5.091-44.806,2.671-11.17,5.027-22.361,4.607-34.057-.5-17.712-4.943-34.14-14.01-49.012-9.024-14.809-22.234-20.888-37.779-20.888-.821,0-1.662,0-2.482.063-11.464.441-22.466,3.933-32.731,9.4-9.445,4.986-18.07,11.275-26.547,17.817C52.955,199.437,30.531,208.693,6.32,213.32a23.779,23.779,0,0,1-3.492.631A4.051,4.051,0,0,1,2,213.87l-.391.082-.042.021v38.453q.508-.3,1.018-.595a11.133,11.133,0,0,1,1.547-1.067,214.645,214.645,0,0,1,20.51-11.044c23.918-11.191,45.9-25.411,65.442-43.985,9.571-9.087,20.3-16.639,32.878-20.383a41.307,41.307,0,0,1,11.338-1.7c9,0,17.186,3.555,24.128,11.338,9.382,10.328,12.537,23.539,13.273,37.359.484,9.529-1.3,18.827-3.492,27.956a189.015,189.015,0,0,0-4.649,55.975c.884,14.556,2.314,28.987,3.871,43.607,1.978,17.986,6.773,34.75,16.7,49.791,7.089,10.707,13.863,21.625,19.058,33.636,4.4,9.971,8.036,20.278,11.759,30.564,6.605,18.511,17.585,32.752,35.171,40.43,4.313,1.893,8.477,4.017,12.705,6.1,18.238,9.214,33.131,23.013,46.678,38.768a90.307,90.307,0,0,1,11.548,16.177c.585,1.061,1.539,2.183,1.658,3.463C322.823,569.061,322.926,569.315,323.029,569.556Zm-41.167,0h39.231a1.385,1.385,0,0,0,.091-.408q-.044-.081-.091-.16c-7.321-13.379-17.4-24.233-28.061-34.6A138.923,138.923,0,0,0,250.9,506.723c-17-7.384-29.029-20.047-35.908-38.243-4.354-11.443-8.625-22.97-13.315-34.308-5.469-13.084-13.4-24.57-20.783-36.434a91.012,91.012,0,0,1-12.579-31.2c-3.933-20.762-5.3-41.9-6.542-62.98a189.852,189.852,0,0,1,5.238-55.849c3.661-15.251,4.438-30.417-.736-45.71-5.763-16.871-17.691-26.357-32.31-26.357a41,41,0,0,0-13.189,2.377c-13.211,4.754-23.833,13.757-34.183,23.139-12.369,11.065-25.285,21.267-39.778,29.071-14.387,7.71-29.189,14.645-43.371,22.855a8.355,8.355,0,0,0-1.876,2.387V309.62a9.571,9.571,0,0,0,1.42,1.711c16.8,10.62,34.491,19.327,52.009,28.517a148.2,148.2,0,0,1,35.718,25.537c10.644,10.518,21.267,20.93,29.576,33.8,8.624,13.274,11.7,28.4,14.241,43.859,2.293,14.283,3.7,28.755,8.73,42.387,3.6,9.971,8.393,19.205,16.134,26.379,8.414,7.867,18.111,13.336,27.515,19.52,13.317,8.78,23.378,19.985,27.092,36.407a5.976,5.976,0,0,0,1.2,1.815h31.763a7.1,7.1,0,0,0,1.791-1.674c2.526-6.22,6.768-9.517,12.177-9.517a16.651,16.651,0,0,1,5.806,1.115,29.435,29.435,0,0,1,12.442,8.373A16.764,16.764,0,0,0,281.863,569.556Zm-31.847-.673-.274.673H278.6q-.257-.323-.523-.636c-.885-.676-1.742-1.4-2.611-2.12a26.168,26.168,0,0,0-10.623-5.953,12.869,12.869,0,0,0-3.786-.589c-4.291,0-7.993,2.377-10.118,6.92a10.363,10.363,0,0,1-.787,1.357C250.106,568.651,250.06,568.768,250.015,568.883Zm-60.288.4.127.274h22.97q-.135-.678-.284-1.348a13.023,13.023,0,0,1-.6-1.745,53.642,53.642,0,0,0-14.957-24.947c-6.5-6.332-14.2-10.6-21.666-15.4-7.3-4.691-14.431-9.55-20.236-16.134-8.771-9.886-13.61-22.045-16.765-35.066-3.387-14.01-4.733-28.524-7.468-42.639-2.713-13.863-7.51-26.694-15.987-37.885-7.888-10.454-16.891-19.647-26.231-28.608a153.552,153.552,0,0,0-37.212-25.768c-15.8-8.015-31.533-16.2-46.741-25.5A16.727,16.727,0,0,1,2,312.5a2.1,2.1,0,0,0-.437-.208v32.121l.2.02a4.463,4.463,0,0,1,1.606-.272,6.589,6.589,0,0,1,1.093.063c7.573,1.009,15.167,2.124,22.718,3.534,25.937,5.027,47.877,17.628,64.979,39.273a118,118,0,0,1,11.612,17.5c9.4,17.712,12.559,37.106,14.346,57.006,1.115,12.454,2.167,24.906,5.617,37,3.3,11.527,8.372,21.919,17.67,29.512,8.33,6.815,17.5,12.243,26.315,18.154a82.143,82.143,0,0,1,20.3,19.542,6.093,6.093,0,0,1,1.616,3.318Zm-67.4.274h23.559l-.253-.109c-1.673-.339-3.356-.671-5.026-1.132a28.355,28.355,0,0,0-7.762-1.115,25.792,25.792,0,0,0-10.3,2.152Q122.437,569.451,122.33,569.556ZM5.835,543.451a52.334,52.334,0,0,0,8.667.484c3.681,0,7.362.042,11.043.042,7.131,0,14.241-.126,21.309-.8,10.286-.989,20.551-2.293,30.438-5.679,8.414-2.945,13.547-9,15.692-18.259,2.5-10.9,3.05-22,3.492-33.047a287.175,287.175,0,0,0,.336-32.689c-1.03-15.566-4.017-30.417-11.38-43.985-8.983-16.533-21.6-28.44-38.916-34.582-8.288-2.9-16.7-3.6-25.137-3.6-4.8,0-9.677.21-14.494.4-1.052.084-2.083.273-3.092.273a5.252,5.252,0,0,1-1.983-.336l-.246.02v21.1a1.552,1.552,0,0,0,.363.272c3.415-.5,6.8-1,10.155-1.66a90.751,90.751,0,0,1,17.586-2.04,50.438,50.438,0,0,1,8.73.736c21.393,3.871,33.888,18.638,39.568,39.946,4.354,16.093,2.945,32.416-1.157,48.4C71.8,497.783,60.57,510.4,42.227,515.348c-12.853,3.513-25.937,3.639-39.1,3.639H2.44a2.325,2.325,0,0,0-.875.546v24.128l.151.013a5.033,5.033,0,0,1,2.12-.412A13.043,13.043,0,0,1,5.835,543.451Zm-4.27-55.113v29.113h.719a6.853,6.853,0,0,1,1.806-.211H5.541c5.532,0,11.044-.379,16.618-.673,8.877-.484,17.543-1.746,25.873-5.175,11.338-4.5,19.458-12.937,24.212-24.717,5.048-12.579,6.584-25.916,6.352-39.568-.21-10.413-2.229-20.194-6.984-29.177-9.045-17.123-22.424-26.441-41.272-26.525h-.484c-8.477,0-16.7,1.978-25.032,3.282a16.874,16.874,0,0,1-1.746.147,4.166,4.166,0,0,1-1.337-.194l-.031,0H1.566v26.315a1.375,1.375,0,0,0,.217.167c1.006-.254,1.989-.511,2.98-.819,8.625-2.651,17.165-5.469,26.252-5.469.442,0,.884.042,1.326.042,10.749.357,20,7.656,23.349,18.427,6.858,22.655-7.278,48.108-29.26,53.03-5.953,1.347-11.886,1.41-17.838,1.41H5.752c-1.086,0-2.185,0-3.283.016A2.154,2.154,0,0,0,1.566,488.338Zm0-65.589v63.506l.69-.009a13.1,13.1,0,0,1,2.907-.285c1.2-.042,2.377-.042,3.618-.042h1.809a75.044,75.044,0,0,0,11.906-.652c20.678-3.681,33.72-20.383,33-42.66-.442-13.61-8.541-23.538-20.952-25.579a28.18,28.18,0,0,0-4.207-.336,37.985,37.985,0,0,0-5.554.463c-6.752.947-13.336,2.966-19.921,5.048a9.493,9.493,0,0,1-2.524.589,2.816,2.816,0,0,1-.654-.073ZM257.23,394.9c7.615,0,14.556-3.933,21.12-12.853,6.268-8.414,11.3-17.628,16.765-26.5a102.727,102.727,0,0,1,43.27-38.895c11.633-5.763,23.833-9.886,35.613-14.956,19.226-8.372,31.532-22.676,34.856-44.995a187.461,187.461,0,0,0,1.993-23.973c-.015-1.98-.022-3.972.026-5.972q-.008-.751-.021-1.5a45.128,45.128,0,0,1,1.367-12.116c2.062-8.12,6.9-12.832,14.767-14.2a55.411,55.411,0,0,1,9.676-.631h4.564c23.58-.112,42.015-20.178,42.951-44.334q0-.152,0-.3c.029-2.309-.057-4.6-.239-6.853q-.117-1.124-.286-2.255c-2.525-16.681-8.709-32.016-14.978-47.393-4.922-11.864-10.307-23.5-13.988-36.034A54.76,54.76,0,0,1,452.3,44.784a30.126,30.126,0,0,1,.712-6.591,36.3,36.3,0,0,1,5.508-13.161c3.828-5.764,8.708-10.308,13.757-14.662,3.022-2.5,5.6-5.661,8.768-7.933l.866-.838H408.285c-.105.1-.21.252-.357.378a4.776,4.776,0,0,0-.885,1.078,92.908,92.908,0,0,1-7.235,21.115,210.474,210.474,0,0,0-17.354,54.314c-2.713,14.388-5.28,28.945-10.055,42.807-2.525,7.615-5.385,15.167-10.707,21.078-9.361,10.307-20.783,14.178-32.962,14.178a67.863,67.863,0,0,1-9.781-.8c-24.8-3.6-43.922-18.091-59.32-38.705-7.8-10.476-14.262-21.919-20.783-33.3-9.592-16.66-20.068-32.731-27.535-50.716-3.938-9.4-7.235-19.092-8.741-29.34A5.647,5.647,0,0,0,201.486,1.6H179.841a2.241,2.241,0,0,0-.256.7,176.153,176.153,0,0,0,11.93,33.947q10.16,21.993,22.235,42.87c12.978,22.613,26.63,44.742,45.815,62.181a190.414,190.414,0,0,0,32.016,23.56c15.272,9,31.89,13.988,48.592,18.89,13.8,3.955,22.97,13.462,28.44,27.22,4.5,11.317,7.994,22.907,8.6,35.4.5,10.223-1.01,19.71-7.341,27.746a62.922,62.922,0,0,1-15.714,13.925c-9.382,5.764-19.079,10.833-28.629,16.155-12.474,6.837-23.96,15.083-33.762,25.873-6.521,7.173-12.916,14.578-19.647,21.562-5.638,5.911-12.222,10.118-20.552,10.518-.484.042-.968.042-1.409.042-14.2,0-26.21-12.242-31.911-25.579-5.763-13.378-6.311-27.556-3.744-41.8,1.746-9.824,4.334-19.521,6.563-29.26a84.642,84.642,0,0,0,1.777-11.452q.313-4.379.243-8.792-.078-2.572-.337-5.146a204.441,204.441,0,0,0-6.647-34.5c-5.027-18.2-9.676-36.517-17.922-53.43a62.236,62.236,0,0,0-6.84-11.3,49.862,49.862,0,0,0-4.414-4.707,56.757,56.757,0,0,0-22.487-12.03c-15.461-4.312-31.448-4.1-47.2-5.889-7.026-.8-14.094-1.62-20.678-4.817-5.722-2.756-11.128-8.036-10.16-16.323a45.985,45.985,0,0,1,5.511-17.039A197,197,0,0,1,108.72,55.555c12.189-15.9,23.791-32.081,29.174-52.155a3.363,3.363,0,0,0-.06-1.8H107.752a3.432,3.432,0,0,0-1.057.986,96.527,96.527,0,0,1-4.749,14.306,106.349,106.349,0,0,1-36.728,44.09C55.1,68.049,44.2,71.689,32.614,71.689a58.725,58.725,0,0,1-9.866-.821c-6.925-1.231-13.869-2.392-20.781-3.547a1.709,1.709,0,0,0-.4.287V170.3H2.01a3.015,3.015,0,0,1,1.007-.168h.252c3.3,0,6.542-.736,9.823-.841a102.932,102.932,0,0,0,23.349-3.828c12.516-3.429,24.023-9.824,35.845-15.251,19.037-8.772,38.622-14.01,58.962-14.01a116.467,116.467,0,0,1,16.324,1.136c17.354,2.314,30.522,11.843,39.589,27.6,8.75,15.167,13.652,31.974,17.123,49.223,2.251,11.17,3.2,22.528,1.62,33.951-1.326,9.7-3.891,19.142-6.016,28.587a129.908,129.908,0,0,0-2.524,45.71c3.934,29.955,18.132,52.525,42.786,67a46.04,46.04,0,0,0,8.838,4.083,39.407,39.407,0,0,0,5.126,1.195A23.4,23.4,0,0,0,257.23,394.9ZM220.818,274.554c-2.377,8.835-4.691,17.691-5.511,26.842-1.431,17.144.9,33.194,11.991,46.593,6.5,7.847,14.641,12.369,23.013,12.369,5.953,0,12.032-2.25,17.733-7.32a131.188,131.188,0,0,0,13.652-14.3c7.236-8.561,14.893-16.66,23.6-23.5,9.34-7.257,19.605-12.727,29.829-18.385,9.129-5.006,18.469-9.739,26.652-16.723,9.55-8.141,14.346-18.6,13.862-31.616-.441-12.79-3.828-24.864-8.477-36.581-5.343-13.379-14.2-22.592-27.7-26.547-9.024-2.608-18.132-5.238-26.988-8.687a166.408,166.408,0,0,1-72.383-54.062c-21.6-27.851-38.116-59.131-52.757-91.588a145.354,145.354,0,0,1-8.6-24.7,11.781,11.781,0,0,1-.679-4.012q-.082-.371-.163-.742H139.916q-.239.991-.5,1.971A25.375,25.375,0,0,1,138.8,6.1c-4.018,14.788-11.822,27.367-20.489,39.484-7.446,10.328-15.65,20.194-22.382,31.238-3.344,5.427-6.185,11-7.446,17.48-1.115,5.932-.021,10.918,4.691,14.872a23.821,23.821,0,0,0,8.772,4.418c10.37,3.092,21.056,3.45,31.637,4.313,8.709.715,17.418,1.346,25.916,3.155,10.962,2.333,20.441,6.717,28.082,13.715q.618.538,1.22,1.094a38.526,38.526,0,0,1,3.9,4.327,60.134,60.134,0,0,1,8.936,15.236c9.109,21.919,15.313,44.827,20.4,68.134a110.481,110.481,0,0,1,2.547,21.169,79.724,79.724,0,0,1-.28,10.077A103.3,103.3,0,0,1,220.818,274.554ZM632.755,204.38a577.835,577.835,0,0,1,8.709,71.394c.484,8.078,1.556,16.071,4.523,23.623,3.807,9.592,10.307,16.344,20.236,18.553a35.793,35.793,0,0,0,7.257.778c7.909,0,15.314-2.9,22.045-8.078,10.917-8.372,17.628-20.152,22.088-33.489,4.144-12.285,4.964-25.179,5.28-38.053a202.117,202.117,0,0,1,2.251-28.44c3.534-20.972,12.979-38.221,28.819-51.348,7.173-5.974,14.872-11.043,22.466-16.323,13.05-9.12,19.062-22.126,20.6-35.7q.042-.482.077-.969c.181-2.239.293-4.335.334-6.322a77.757,77.757,0,0,0-1.785-16.417,21.158,21.158,0,0,0-4.27-7.993c-4.986-6.374-11.717-7.993-18.89-9.045a108.352,108.352,0,0,0-14.767-.82c-4.354,0-8.666.147-13.021.147-1.178,0-2.335-.042-3.534-.063a69.93,69.93,0,0,1-16.2-2.083c-21.645-5.743-39.42-18.3-54.524-35.487-5.911-6.753-9.929-14.873-13.126-23.413A7.269,7.269,0,0,1,656.7,2.16q-.079-.281-.154-.561h-36.5a2.918,2.918,0,0,0-.615,1.515c-.013,4.313-.038,8.593.047,12.873A43.557,43.557,0,0,1,618.114,28.1c-1.115,4.017-3.429,6.142-6.331,6.142a8.622,8.622,0,0,1-4.459-1.451,20.5,20.5,0,0,1-3.577-3.05A71.767,71.767,0,0,1,587.578,2.891,4.765,4.765,0,0,0,586.267,1.6H554.756l.3.84a6.663,6.663,0,0,1,.52,1.095c4.67,12.978,9.761,25.684,13.442,39.042,2.756,9.992,4.838,20.11,7.4,30.144A67.589,67.589,0,0,0,592.7,103.368c5.911,6.311,12.306,12.116,17.9,18.743a74.173,74.173,0,0,1,10.952,17.883,75.085,75.085,0,0,1,3.8,10.747,108.308,108.308,0,0,1,3.464,19.394c.491,5.717.951,11.429,1.545,17.109.7,5.481,1.452,10.916,2.228,16.255Q632.674,203.939,632.755,204.38Zm274.323,69.059c3.576,0,7.131-.189,10.791-.484,9.95-.82,19.626-3.681,29.366-5.911a13.071,13.071,0,0,1,2.314-.421q.134,0,.267.011l.469-.116V178.17l-.35-.111q-.088.005-.176.005a8.241,8.241,0,0,1-2.524-.631c-5.049-1.641-9.992-3.786-15.167-5.217a99.089,99.089,0,0,0-25.579-3.366,101.057,101.057,0,0,0-40.009,8.436,41.686,41.686,0,0,0-16.406,11.929,42.4,42.4,0,0,0-7.786,17.238,57.584,57.584,0,0,0,2.5,29.6,59.266,59.266,0,0,0,17.571,23.326C875.907,269.993,891.159,273.439,907.078,273.439ZM204.536,5.28c3.092,15.692,8.919,30.186,16.428,43.985,8.856,16.092,18.3,31.911,27.62,47.708,7.7,13.126,15.966,25.811,27.515,35.7,14.914,12.706,31.175,21.793,50.612,21.793a23.267,23.267,0,0,0,2.419-.084c21.119-.82,33.172-10.413,39.9-28.629,4.944-13.358,7.8-27.262,10.434-41.187,3.344-17.922,7.215-35.634,14.809-52.147,4.27-9.508,8.625-18.911,11.107-29.176a3.188,3.188,0,0,1,.245-.786q.09-.427.175-.855H372.736a5.747,5.747,0,0,0-1.041,1.44c-1.513,10.75-3.25,21.485-4.386,32.238-1.451,14.409-2.188,28.818-3.6,43.206-1.22,12.1-3.639,23.918-9.108,34.772-7.931,16.071-21.5,23.791-35.929,23.791a44.531,44.531,0,0,1-16.323-3.2c-14.536-5.785-25.348-16.471-34.014-30-6.4-10.013-11.738-20.783-17.438-31.238-6.248-11.423-12.706-22.719-18.932-34.162A143.8,143.8,0,0,1,218.642,2.375a3.055,3.055,0,0,0-.875-.776H203.821q.109.881.237,1.765C204.249,3.987,204.4,4.633,204.536,5.28Zm16.807.231c2.609,12.348,7.657,23.56,13.484,34.414,8.6,15.819,17.438,31.322,25.811,47.182,6.1,11.654,12.642,23.139,22.318,32.016,10.224,9.424,21.625,15.987,35.234,15.987a28.705,28.705,0,0,0,3.282-.147,34.914,34.914,0,0,0,26.463-14.409c8.267-10.939,11.464-23.875,13.441-37.338C363,72.089,363.564,60.9,364.3,49.644c1.01-15.209,3.239-30.228,5.385-45.248a7.688,7.688,0,0,1,.542-1.831q.067-.484.132-.967H346.483V2.827a24.77,24.77,0,0,1,.168,3.021c.1,10.518-.378,21.078.147,31.553.631,11,1.62,22.024,1.136,32.942-.441,10.707-2.145,21.267-7.278,30.691-4.986,8.982-12.011,15.229-21.856,16.639a32.234,32.234,0,0,1-4.648.336c-11.044,0-20.152-5.638-27.935-14.41-6.689-7.594-11.633-16.639-15.861-25.957-6.773-14.872-14.136-29.3-22.024-43.5A125.336,125.336,0,0,1,236.111,5.132a8.114,8.114,0,0,1-.393-3q-.047-.267-.091-.534H220.04l.041.186A10.7,10.7,0,0,1,221.343,5.511ZM245.03,23.643c11.149,20.909,21.477,42.177,32.079,63.317,4.838,9.676,11.149,18.259,20.236,23.98a32.345,32.345,0,0,0,17.06,5.217c8.709,0,17-4.123,22.824-12.937,6.815-10.265,8.477-22.088,9.087-34.141.652-13.61-1.451-27.177-1.346-40.745V3.03A3.024,3.024,0,0,0,344.38,1.6H312.848a1.947,1.947,0,0,0-.428.855c.487,4.764.938,9.477,1.605,14.206,1.683,12.643,5.512,24.8,7.489,37.4.988,6.058,1.894,12.243.336,18.364-.968,3.955-2.124,8.036-5.553,10.5a10.731,10.731,0,0,1-6.353,2.272c-2.861,0-5.764-1.389-8.477-4-4.754-4.607-7.594-10.581-10.16-16.723-4.459-10.854-7.951-22.234-13.42-32.647-5.005-9.551-10.483-18.8-14.663-28.811A5.061,5.061,0,0,0,261.648,1.6H237.562a1.434,1.434,0,0,0-.3.579A71.616,71.616,0,0,0,245.03,23.643ZM265.665,4.249a88.851,88.851,0,0,0,4.9,10.287C277.929,27.893,284.913,41.377,289.94,56a82.17,82.17,0,0,0,7.741,17.354c2,3.387,4.228,6.479,7.7,8.372a10.37,10.37,0,0,0,5.006,1.409c3.239,0,5.995-1.935,7.846-5.722a29.756,29.756,0,0,0,2.461-16.955,239.131,239.131,0,0,0-4.881-25.39A195.867,195.867,0,0,1,310.829,4.06a6.363,6.363,0,0,1,.053-1.708l-.074-.753H264.277q.129.317.259.633A10.723,10.723,0,0,1,265.665,4.249ZM4.131,65.778c5.154.863,10.265,2,15.419,2.819a85.438,85.438,0,0,0,13.421,1.157,47.19,47.19,0,0,0,19.5-3.871c12.18-5.49,22.34-13.82,31.364-24.085,9.635-11,16.955-23.5,20.762-38.158A5.886,5.886,0,0,1,105.266,2l.109-.4H61.1A16.548,16.548,0,0,0,58.443,3.37c-7.8,9.941-19,11.99-30.6,12.028H27.25c-8.238,0-16.4-1.013-24.63-1.176a5.069,5.069,0,0,0-1.055.651V65.693l.373.062a4.417,4.417,0,0,1,.889-.083A7.1,7.1,0,0,1,4.131,65.778ZM693.442,4.4c4.229,8.246,9.214,15.756,16.177,21.666,13.189,11.191,28.166,14.767,43.985,14.767,3.2,0,6.416-.147,9.656-.421,9.823-.8,19.626-1.661,29.449-2.714,6.479-.736,12.874-1.409,19.185-3.155a14.265,14.265,0,0,0,10.265-9.634A87.968,87.968,0,0,0,826.092,7.3a27.7,27.7,0,0,1,.776-4.647q.027-.524.044-1.053H798.22a17.343,17.343,0,0,0-2.313,1.738,17.831,17.831,0,0,1-3.976,4.4,54.14,54.14,0,0,1-34.351,11.717c-1.009,0-1.977-.042-3.008-.084-12.872-.615-24.164-4.844-31.954-15.939A10.132,10.132,0,0,0,720.136,1.6H692.1c.226.528.455,1.049.688,1.566C693.011,3.565,693.226,3.979,693.442,4.4ZM591,6.983a67.509,67.509,0,0,0,13.946,21.5c1.7,1.83,3.681,3.681,6.164,3.681a5.144,5.144,0,0,0,1.788-.336c3.281-1.157,3.576-4.543,4.207-7.51,1.262-6.29.4-12.558.673-18.89.042-.788.037-1.586.127-2.345l.021-1.483h-29.2q.095.287.191.572A25.457,25.457,0,0,1,591,6.983ZM725.269,4.249a23.864,23.864,0,0,0,8.057,6.942,47.718,47.718,0,0,0,23.98,6.584c9.739,0,19.373-3.05,29.008-8.225,3.3-1.758,5.641-4.712,8.382-7.153q.252-.39.5-.8H723.208q.3.46.619.906A15.7,15.7,0,0,1,725.269,4.249ZM10.716,12.642c5.679.295,11.359.779,17.017.779,2.272,0,4.543-.063,6.817-.252C42.879,12.411,50.346,9.55,56.4,3.2q.426-.447.873-.836.293-.374.58-.762H46.14l-14.578.042q-14.546,0-29.029-.1c-.526,0-.779.021-.905.021H1.607a2.4,2.4,0,0,0-.084,1.052c.1,2.671.1,5.385.084,8.1,0,.674-.042,1.346-.042,1.978q.4,0,.806.011A8.6,8.6,0,0,1,5.456,12.2C7.2,12.2,8.99,12.537,10.716,12.642ZM133.037,565.349ZM761.849,547.952Zm-245.105-33.32c-9.3-7.257-3.976-23.917,2.84-27.851a7.57,7.57,0,0,1,3.7-1.157A6.642,6.642,0,0,1,528.04,488c5.175,5.28,6.921,14.872,3.239,21.5-1.893,3.534-4.648,6.837-9.066,7.257A8.933,8.933,0,0,1,516.744,514.632Zm3.576-26.547c-3.492,2.04-6.626,8.183-6.984,13.988-.231,2.819.105,8.057,4.334,11.38a7.569,7.569,0,0,0,4.4,1.767c3.155-.294,5.659-2.335,7.888-6.458,3.26-5.848,1.935-14.661-3.029-19.71a5.056,5.056,0,0,0-3.639-1.893A6.556,6.556,0,0,0,520.321,488.085Zm211.259,10.034c-3.871-2.124-8.035-4.67-8.855-9.781a21.942,21.942,0,0,1,2.9-15.566,120.042,120.042,0,0,1,7.3-9.971c9.15-11.107,19.963-19.185,34.057-20.888a42.787,42.787,0,0,1,4.838-.316v1.536a38.477,38.477,0,0,0-4.607.295c-12.348,1.494-22.908,7.952-33.131,20.341-2.377,2.945-4.733,6.142-7.152,9.824a20.426,20.426,0,0,0-2.714,14.493c.758,4.354,4.249,6.626,8.078,8.709,8.036,4.186,17.354,6.353,29.176,6.71,8.52-.295,17.481-1.41,25.222-7.341,14.64-11.422,14.052-31.238,7.951-40.62-5.385-8.33-12.873-12.411-22.823-12.411V441.6c9.739,0,18.069,3.766,24.127,13.147,6.5,10.055,6.879,30.817-8.372,42.6-7.8,6.058-16.723,7.362-26.021,7.7C751.227,504.7,741.024,503.062,731.579,498.119Zm117.8-15.25c-2.756-9.172-4.607-18.428-6.921-27.662-4.9-19.5-14.872-34.982-32.563-43.375-13.694-6.437-27.977-8.961-42.471-8.961a144.109,144.109,0,0,0-18.953,1.283c-11.38,1.493-21.94,6.184-32.458,10.875-7.488,3.387-15.145,6.269-23.433,6.543-13.526,0-27.472-11.423-31.006-25.474a18,18,0,0,1,7.025-19.605,57.806,57.806,0,0,1,15.019-7.72c20.257-7.173,35.845-20.909,48.108-39.189,8.33-12.538,15.966-25.516,23.244-38.747,4.06-7.4,7.762-14.978,13.5-21.12,2.44-2.629,4.67-3.871,7.194-3.871a12.958,12.958,0,0,1,5.7,1.641c6.584,3.344,10.707,9.508,15.167,15.1,9.108,11.527,18.321,22.929,28.271,33.719,15.125,16.176,30.922,31.722,44.133,49.939,13.61,18.848,28.545,36.475,41.566,55.765,6.647,9.845,11.549,20.678,9.886,33.383-2.756,21.5-15.587,40.683-37.443,46.026a34.938,34.938,0,0,1-8.288,1.052C863.766,502.474,853.543,496.794,849.378,482.869Zm-38.811-72.425c16.955,8.035,27.872,22.571,33.384,44.406.778,3.113,1.514,6.247,2.229,9.361,1.409,5.995,2.861,12.2,4.649,18.216,4.838,16.113,17,18.511,23.833,18.511a32.087,32.087,0,0,0,7.909-.988c19.5-4.754,33.425-21.9,36.328-44.742,1.346-10.476-1.641-20.446-9.655-32.331-7.594-11.233-15.987-22.088-24.106-32.626-5.785-7.51-11.78-15.272-17.438-23.118-10.476-14.472-22.865-27.43-34.751-40.051-3.134-3.219-6.184-6.458-9.276-9.74-10.224-11.107-19.584-22.781-28.335-33.783l-1.894-2.4c-3.639-4.712-7.425-9.592-12.789-12.327a11.354,11.354,0,0,0-4.986-1.43c-2.061,0-3.934,1.009-6.079,3.365-4.838,5.2-8.183,11.359-11.675,17.881l-1.6,2.924c-8.308,15.061-15.692,27.409-23.328,38.852-13.274,19.837-29.3,32.837-48.887,39.8a55.49,55.49,0,0,0-14.62,7.51,16.526,16.526,0,0,0-6.458,17.985c3.387,13.421,16.618,24.317,29.513,24.317,8.183-.252,15.84-3.218,22.845-6.395,10.391-4.648,21.182-9.487,32.857-11a150.722,150.722,0,0,1,19.184-1.3C783.348,401.335,797.462,404.322,810.567,410.444Zm-417.89,65.083c-6.878-2.692-12.453-7.488-17.039-13.694-11.822-16.092-21.267-33.867-29.6-52.315-3.534-7.741-5.869-15.987-4.081-24.8,2.756-13.863,11.78-21.309,23.349-26.252,9.97-4.27,20.383-6.773,30.48-10.6a83.009,83.009,0,0,0,32.29-21.12c8.877-9.466,15.167-20.656,20.446-32.6,8.141-18.806,19.226-35.172,34.393-48.361,11.822-10.349,23.455-20.973,36.328-29.87,8.73-5.932,17.8-11.528,28.65-11.528h.673c11.759.19,21.5,5.764,29.3,14.367,17.775,19.584,25.811,42.934,19.773,70.3-2.525,11.527-7.868,21.351-17.838,27.7-4.081,2.608-8.183,5.091-12.453,7.4A143.853,143.853,0,0,0,530.8,352.3c-5.911,6.395-11.864,12.832-17.648,19.436-13.126,15.062-27.935,28.188-43.628,40.283-15.545,11.991-29.807,25.432-40.788,42.534-3.7,5.637-7.383,11.4-12.663,15.608-4.986,3.976-10.308,6.773-16.155,6.773A20.252,20.252,0,0,1,392.677,475.527ZM520.089,217.149c-11.106,7.72-21.561,16.87-31.6,25.768l-4.585,4c-14.346,12.474-25.453,28.167-34.015,47.855-6.206,14.094-12.789,24.591-20.7,33.026a84.544,84.544,0,0,1-32.878,21.5c-4.354,1.661-8.772,3.071-13.084,4.459a178.726,178.726,0,0,0-17.333,6.121c-13.189,5.616-20.11,13.4-22.445,25.137-1.451,7.257-.231,14.62,3.976,23.875,9.592,21.2,18.911,37.738,29.449,52.063,4.649,6.311,10.139,10.728,16.345,13.147a18.62,18.62,0,0,0,6.689,1.3c4.838,0,9.676-2.04,15.188-6.437,4.9-3.85,8.477-9.318,11.927-14.556l.442-.673c9.634-15.062,22.718-28.714,41.166-42.913,17.249-13.315,31.448-26.4,43.354-40.093,5.659-6.416,11.38-12.6,17.691-19.479a147.546,147.546,0,0,1,36.96-28.44c3.828-2.083,7.741-4.418,12.348-7.363,8.856-5.616,14.43-14.346,17.186-26.694,5.574-25.432-.968-48.634-19.458-69.018-8.183-8.982-17.649-13.63-28.209-13.82h-.61C537.569,205.916,528.84,211.238,520.089,217.149ZM771.821,441.6ZM430.078,386.8c-2.861-4.27-1.451-8.393.442-12.537a59.841,59.841,0,0,1,7.173-12.664,199.754,199.754,0,0,0,31.322-56.67c4.9-13.5,11.591-25.957,21.561-35.991a132.139,132.139,0,0,1,32.205-23.875c5.722-2.966,11.738-5.238,18.216-5.617a8.061,8.061,0,0,1,.968-.063,21,21,0,0,1,5.28.968c14.093,3.2,23.118,19.773,18.553,33.909a45.082,45.082,0,0,1-9.424,15.84c-6.247,6.836-13.084,12.937-19.584,19.436-14.241,14.346-27.556,29.745-40.451,45.437-9.256,11.275-19.164,21.6-31.49,28.881-7.152,4.313-14.725,7.447-22.992,7.973-.442.021-.926.021-1.367.021C436.431,391.848,432.686,390.712,430.078,386.8ZM541.1,240.982c-5.469.337-11.086,2.041-17.67,5.428a131.982,131.982,0,0,0-31.827,23.6c-8.835,8.919-15.756,20.53-21.183,35.445a202.247,202.247,0,0,1-31.533,57.069,58.933,58.933,0,0,0-6.983,12.369c-2.062,4.481-2.8,7.7-.568,11.044,2,3.029,4.9,4.4,9.15,4.4a12.161,12.161,0,0,0,1.262-.042c7.215-.441,14.283-2.9,22.339-7.72,13.021-7.741,23.013-18.785,31.09-28.566,15.251-18.6,28.1-33.047,40.535-45.542,2.293-2.314,4.607-4.543,6.984-6.773,4.165-4.081,8.519-8.246,12.558-12.642a42.431,42.431,0,0,0,9.087-15.272,25.521,25.521,0,0,0-2.377-20.278,24.057,24.057,0,0,0-15.1-11.674l-.589-.147a18.926,18.926,0,0,0-4.313-.736A6.262,6.262,0,0,0,541.1,240.982Zm276.321,145a325.415,325.415,0,0,1-34.162-4.123c-8.877-1.557-17.691-3.45-25.81-8.225-6.711-3.85-9.7-10.812-7.72-18.7,2.146-8.666,5.722-16.87,11.3-23.6,6.395-7.741,12.116-11.969,18.784-11.969v1.515c-5.7,0-10.98,3.428-17.585,11.422-4.986,6.016-8.709,13.757-11,23.013-1.789,7.11.8,13.463,6.983,17.039,8.035,4.712,16.955,6.542,25.348,8.014a324.388,324.388,0,0,0,33.993,4.1c.357.021.736.021,1.114.021a39.446,39.446,0,0,0,7.216-.884,7.027,7.027,0,0,0,4.523-2.861,8.045,8.045,0,0,0,1.115-6.163c-1.073-5.512-3.408-10.834-7.615-17.186a110.74,110.74,0,0,0-30.417-31.2c-5.2-3.6-9.7-5.322-13.674-5.322V319.36c4.313,0,9.024,1.788,14.536,5.574a111.973,111.973,0,0,1,30.86,31.638c3.534,5.385,6.542,11.127,7.8,17.691,1.052,5.28-1.935,9.97-6.921,10.833a38.138,38.138,0,0,1-7.426.925C818.288,386.021,817.846,386.021,817.425,385.979ZM123.339,362.672a57.059,57.059,0,0,1-16.176-8.414C91.513,343.109,75.884,332,60.338,320.685c-5.469-3.976-10.854-8.14-15.229-13.462-9.929-12.159-12.5-24.338-2.314-38.1a50.334,50.334,0,0,1,9.55-9.592c16.282-12.579,33.4-23.812,49.013-37.338,6.794-5.869,14.01-11.086,22.466-13.9a15.485,15.485,0,0,1,5.049-.884c4.9,0,9.256,2.587,12.306,7.362a22.688,22.688,0,0,1,3.05,8.582c1.978,10.665-.042,21.162-.968,31.742a206.848,206.848,0,0,0-.925,31.869c.778,12.348,1.7,24.653,2,37,.232,10.224-.736,20.257-4.312,29.85-2.335,6.395-6.29,9.676-11.675,9.676A17.025,17.025,0,0,1,123.339,362.672Zm.947-152.97c-8.919,2.987-16.387,8.856-21.919,13.652-9.971,8.583-20.678,16.387-31.027,23.98-5.932,4.313-12.117,8.856-18.07,13.42a50.069,50.069,0,0,0-9.256,9.256c-8.961,12.158-8.288,23.349,2.272,36.265,4.4,5.3,9.781,9.424,14.957,13.189,14.872,10.791,30.038,21.646,44.721,32.079l2.083,1.494c5.763,4.06,10.749,6.669,15.735,8.183a16.209,16.209,0,0,0,4.564.736c4.754,0,8.1-2.818,10.265-8.646,3.114-8.456,4.46-17.753,4.208-29.3-.231-9.929-.905-20-1.536-29.829l-.484-7.131a209.33,209.33,0,0,1,.925-32.058c.232-2.314.463-4.544.715-6.837.884-8.035,1.788-16.365.294-24.548a20.7,20.7,0,0,0-2.861-8.035c-2.714-4.312-6.647-6.689-11-6.689A14.479,14.479,0,0,0,124.286,209.7ZM779.813,319.36ZM246.04,302.805a65.415,65.415,0,0,1,1.114-14.346,119.421,119.421,0,0,0-1.536-46.362c-3.492-14.767-8.624-28.965-11.927-43.838-1.788-8.224-3.239-16.513-2.987-24.99.273-8.246,3.723-12.579,9.971-12.579a19.3,19.3,0,0,1,4.691.715c7.994,2.188,14.935,6.816,21.9,11.233,13.421,8.583,26.652,17.5,39.862,26.4,8.772,5.827,17.4,11.78,24.612,19.963,6.731,7.594,10.9,16.177,10.433,27.22.568,8.225-2.819,15.019-8.162,20.973-6.878,7.573-15.146,13.084-23.77,17.922-12.074,6.837-24.317,13.421-35.739,21.519a77.082,77.082,0,0,1-11.7,7.173,15.809,15.809,0,0,1-6.626,1.683C250.31,315.49,246.354,310.9,246.04,302.805Zm-13.8-129.473c-.274,8.519,1.262,16.849,2.924,24.548,1.746,7.846,4.018,15.651,6.247,23.2,1.978,6.689,4.018,13.694,5.7,20.678a120.241,120.241,0,0,1,1.515,46.951,64.858,64.858,0,0,0-1.073,14.052c.295,7,3.492,11.191,8.625,11.191a13.993,13.993,0,0,0,5.953-1.515,75.576,75.576,0,0,0,11.485-7.026c9.845-6.983,20.489-12.979,30.712-18.743l5.175-2.9c6.984-3.933,15.987-9.487,23.392-17.628,5.679-6.353,8.246-12.811,7.762-20,.4-9.592-2.819-17.922-10.076-26.168-6.983-7.888-15.461-13.8-24.317-19.668-12.894-8.709-26.252-17.691-39.82-26.358l-1.493-.968c-6.29-4.017-12.79-8.14-20-10.118a18.481,18.481,0,0,0-4.27-.589C235.29,162.267,232.45,165.991,232.24,173.332ZM96.309,307.937c-2.735-1.661-5.6-3.092-7.7-5.616a20.5,20.5,0,0,1-4.88-10.328,14.724,14.724,0,0,1,1.7-5.763c2.756-4.943,7.026-7.741,12.158-7.741v1.536c-4.564,0-8.288,2.419-10.812,6.942a13.3,13.3,0,0,0-1.515,4.8,18.234,18.234,0,0,0,4.48,9.55,21.18,21.18,0,0,0,5.848,4.439l1.493.884a9.533,9.533,0,0,0,4.8,1.536c4.607,0,7.089-5.364,7.131-10.413a23.833,23.833,0,0,0-2.567-10.707c-1.451-3.2-4.081-7.026-8.709-7.026l-.147-1.536h.19c4.648,0,7.951,3.281,10.034,7.951a25.56,25.56,0,0,1,2.714,11.38c-.021,5.911-3.155,11.864-8.646,11.864A10.864,10.864,0,0,1,96.309,307.937Zm567.221-29.6c-2.882-7.7-3.155-15.987-3.555-24.065-.674-11.99.063-23.98-.674-36.055-1.114-17.291-.862-34.625-.862-51.916a174.484,174.484,0,0,0-2.566-27.683c-1.767-11.38-5.2-22.277-7.846-33.467-1.809-7.657-4.565-15.1-4.229-23.287.253-5.953,3.534-9.445,9.193-9.655a17.6,17.6,0,0,1,2.1-.084v1.556h-2.04c-6.1.273-7.594,4.628-7.741,8.267-.21,6.016,1.262,11.528,2.84,17.4.442,1.83.968,3.639,1.367,5.427.863,3.786,1.83,7.51,2.8,11.233a223.5,223.5,0,0,1,5.091,22.382,181.73,181.73,0,0,1,2.566,27.914v8.267c-.084,14.3-.084,29.071.841,43.543.421,6.311.379,12.706.379,18.89-.042,5.638-.042,11.485.252,17.207l.084,1.641c.4,7.383.82,14.977,3.428,21.961,2.819,7.362,7.72,11.569,13.421,11.569a14.829,14.829,0,0,0,8.288-2.861,28.808,28.808,0,0,0,9.3-10.854c4.207-8.288,5.133-17.186,5.49-24.8.19-3.534.147-7.026.127-11.423-.042-2.293-.042-4.753-.042-7.467-.673-15.8,1.031-30.27,5.049-42.954,5.027-15.692,13.357-30.817,25.516-46.32,4.607-5.869,9.214-11.591,13.82-17.4l1.431-1.83a31.535,31.535,0,0,0,4.123-7.321c3.008-7.215,1.893-10.518-5.091-14.914a25.327,25.327,0,0,0-8.456-2.776c-17.291-3.871-34.014-10.224-48.066-15.924-12.537-5.049-23.055-8.856-34.772-8.856V72.131c12.453,0,23.917,4.4,35.34,9,15.65,6.311,31.406,12.159,47.834,15.84a27.324,27.324,0,0,1,8.94,2.966c7.846,4.943,8.835,9.256,5.679,16.807a31.792,31.792,0,0,1-4.312,7.657c-5.091,6.395-10.181,12.789-15.272,19.269-10.791,13.757-19.795,28.671-25.264,45.815-4.607,14.641-5.49,29.807-5.006,42.45,0,8.119.21,13.546,0,18.995-.463,8.814-1.683,17.438-5.722,25.41a30.492,30.492,0,0,1-9.761,11.444,16.32,16.32,0,0,1-9.171,3.134C672.322,290.92,666.748,286.755,663.53,278.341ZM899.821,248.45c-9.13,0-17.691-2.188-25.011-8.477-6.542-5.617-10.5-12.727-9.887-21.793.694-9.845,6.164-16.66,14.451-20.068a42.724,42.724,0,0,1,16.85-3.429c13.989,0,28.1,6.542,37.99,18.3,6.185,7.426,5.449,16.723-.631,22.739-9.4,9.34-20.4,12.579-32.752,12.727Zm-19.837-48.929c-8.225,3.408-12.916,9.887-13.547,18.743-.526,7.952,2.524,14.683,9.34,20.594,6.395,5.427,14.283,8.1,24.044,8.1h1.009c13.316-.19,23.392-4.081,31.679-12.306,5.806-5.763,6.016-14.093.526-20.7-9.3-11.086-23.1-17.712-36.812-17.712A40.815,40.815,0,0,0,879.985,199.521Zm-457.5-61.865a17.437,17.437,0,0,1-17.4-14.22c-2.124-11.106-.631-21.561,6.206-30.712a11.566,11.566,0,0,1,9.3-4.965,11.717,11.717,0,0,1,7.152,2.546c8.246,6.374,12.327,15.293,13.274,25.853,1.114,13.379-5.553,21.5-17.186,21.5Zm-9.95-43.985c-6.206,8.288-8.141,17.943-5.953,29.47a16.008,16.008,0,0,0,15.9,13.021,7.825,7.825,0,0,0,1.346-.084c4.9,0,8.919-1.557,11.633-4.46,3.176-3.492,4.586-8.771,4.018-15.356-.926-10.665-5.2-18.995-12.663-24.717a9.7,9.7,0,0,0-14.283,2.125Zm432.93,38.705c-12.011-2.693-15.651-6.185-19.058-18.68a61.863,61.863,0,0,1-2.083-19.331c-.61-3.871.358-8.246.737-12.684a98.625,98.625,0,0,1,4.165-22.087c2.608-7.993,7.615-11.78,15.4-12.811a71.239,71.239,0,0,1,8.919-.568V47.75a73.712,73.712,0,0,0-8.709.5c-7.426,1.01-11.822,4.628-14.114,11.822a97.929,97.929,0,0,0-4.165,21.73c-.084,1.3-.232,2.587-.379,3.871a31.677,31.677,0,0,0-.294,8.771,59.769,59.769,0,0,0,2,18.89c3.24,11.843,6.437,14.935,17.922,17.543a34.253,34.253,0,0,0,7.446.736c6.353,0,12.558-1.472,19.879-3.786,10.9-3.345,18.679-7.8,24.443-14.136,8.5-9.213,12.937-20.656,12.032-31.448-.736-8.961-5.132-16.807-12.642-22.76a43.441,43.441,0,0,0-15.9-7.656c-7.446-1.894-17.249-4.081-27.515-4.081V46.215c9.445,0,18.7,1.788,27.893,4.123a44.544,44.544,0,0,1,16.428,7.973c19.247,15.04,16.092,39.883.82,56.438-6.858,7.426-15.776,11.675-25.116,14.578-6.689,2.083-13.441,3.871-20.321,3.871A37.932,37.932,0,0,1,845.465,132.376ZM518.932,104.483C510.5,100.4,504.4,93.545,499.58,85.362c-4.165-7.089-7.257-14.641-7.679-23.118-.21-3.05.631-5.868,1.389-8.814,2.419-9.339,13.8-18.995,24.275-18.995a14.554,14.554,0,0,1,8.919,2.9A24.359,24.359,0,0,1,534.9,48.823c3.871,9.887,4.375,20.11,2.756,30.607-1.115,7.216-2.209,14.494-5.743,20.888-2,3.786-4.607,5.574-7.678,5.574A13.057,13.057,0,0,1,518.932,104.483Zm-24.19-50.674-.19.841a23.98,23.98,0,0,0-1.157,7.51c.379,7.216,2.756,14.367,7.51,22.4,5.28,8.961,11.38,15.019,18.7,18.511a10.673,10.673,0,0,0,4.628,1.262c2.545,0,4.628-1.557,6.352-4.754,3.345-6.037,4.418-13.063,5.49-19.858l.084-.526c1.7-11,.821-20.74-2.671-29.828-1.914-4.817-4.4-8.246-7.888-10.77a13.04,13.04,0,0,0-8.036-2.609C508.2,35.991,497.118,44.616,494.741,53.809ZM144.753,89.99a10.845,10.845,0,0,1-7.446-9.971c0-4.607.715-5.995,5.953-11.569,3.828-4.039,8.183-5.974,12.348-5.974V63.99c-3.955,0-7.8,1.893-11.233,5.511-5.2,5.533-5.533,6.458-5.533,10.518a9.224,9.224,0,0,0,6.269,8.477,40.149,40.149,0,0,0,9.929,1.346,31.983,31.983,0,0,0,7.257-.82,9.386,9.386,0,0,0,6.479-4.838c1.431-2.819,1.367-6.437-.231-10.118-2.756-6.395-7.467-10.076-12.937-10.076V62.475c5.806,0,11.233,3.786,14.346,11,3.387,7.888.232,15.23-7.32,17.018a32.28,32.28,0,0,1-7.594.9A40.951,40.951,0,0,1,144.753,89.99ZM655.094,72.131ZM155.608,62.475ZM853.543,46.215Z" transform="translate(17.333 11.3)" fill="#fff" stroke="rgba(0,0,0,0)" stroke-width="1"/>
  </g>
</svg>
