<svg id="local_phone-24px" xmlns="http://www.w3.org/2000/svg" width="14" height="14" viewBox="0 0 14 14">
  <path id="Path_639" data-name="Path 639" d="M0,0H14V14H0Z" fill="none"/>
  <path id="Path_640" data-name="Path 640" d="M5.112,7.544a8.837,8.837,0,0,0,3.844,3.844l1.283-1.283a.58.58,0,0,1,.6-.14,6.654,6.654,0,0,0,2.082.333.585.585,0,0,1,.583.583v2.036a.585.585,0,0,1-.583.583A9.916,9.916,0,0,1,3,3.583.585.585,0,0,1,3.583,3H5.625a.585.585,0,0,1,.583.583,6.627,6.627,0,0,0,.332,2.082.585.585,0,0,1-.146.6Z" transform="translate(-1.25 -1.25)" fill="#0a64f9"/>
</svg>
