<?xml version="1.0" encoding="UTF-8"?>
<svg id="Layer_1" data-name="Layer 1" xmlns="http://www.w3.org/2000/svg" version="1.1" xmlns:xlink="http://www.w3.org/1999/xlink" viewBox="0 0 24 24">
  <defs>
    <style>
      .cls-1 {
        fill: none;
      }

      .cls-1, .cls-2 {
        stroke-width: 0px;
      }

      .cls-3 {
        clip-path: url(#clippath);
      }

      .cls-2 {
        fill: #0a64f9;
      }
    </style>
    <clipPath id="clippath">
      <rect class="cls-1" y="0" width="24" height="24"/>
    </clipPath>
  </defs>
  <g class="cls-3">
    <g id="Mask_Group_4786" data-name="Mask Group 4786">
      <g id="email">
        <path id="Path_8319" data-name="Path 8319" class="cls-2" d="M13.7,14.7c-1,.7-2.3.7-3.3,0L2.1,9.3s0,0-.1,0v9c0,1,.8,1.8,1.8,1.8h16.3c1,0,1.8-.8,1.8-1.8,0,0,0,0,0,0v-9s0,0-.1,0l-8.2,5.5Z"/>
        <path id="Path_8320" data-name="Path 8320" class="cls-2" d="M2.8,8.3l8.2,5.5c.6.4,1.4.4,2,0l8.2-5.5c.5-.3.8-.9.8-1.5,0-1-.8-1.8-1.8-1.8H3.8c-1,0-1.8.8-1.8,1.8,0,.6.3,1.1.8,1.5Z"/>
      </g>
    </g>
  </g>
</svg>