<svg xmlns="http://www.w3.org/2000/svg" xmlns:xlink="http://www.w3.org/1999/xlink" width="20" height="20" viewBox="0 0 20 20">
  <defs>
    <clipPath id="clip-path">
      <rect id="Rectangle_3313" data-name="Rectangle 3313" width="20" height="20" transform="translate(39 2034)" fill="none" stroke="#707070" stroke-width="1"/>
    </clipPath>
  </defs>
  <g id="shipped" transform="translate(-39 -2034)" clip-path="url(#clip-path)">
    <g id="Group_7257" data-name="Group 7257" transform="translate(-1301.574 -101.701)">
      <path id="Path_7386" data-name="Path 7386" d="M7.329,25.65H6.108A1.257,1.257,0,0,1,4.887,24.36V15.334a1.257,1.257,0,0,1,1.221-1.289h7.325a1.257,1.257,0,0,1,1.221,1.289V25.65H9.77" transform="translate(1338.687 2125.656)" fill="none" stroke="#03cbff" stroke-linecap="round" stroke-linejoin="round" stroke-width="1.4"/>
      <path id="Path_7387" data-name="Path 7387" d="M98.089,70.04h0a1.289,1.289,0,0,1,1.289,1.289v2.579A1.289,1.289,0,0,1,98.089,75.2H97.058" transform="translate(1258.862 2076.108)" fill="none" stroke="#03cbff" stroke-linecap="round" stroke-linejoin="round" stroke-width="1.4"/>
      <circle id="Ellipse_408" data-name="Ellipse 408" cx="1.289" cy="1.289" r="1.289" transform="translate(1346.041 2150.016)" fill="none" stroke="#03cbff" stroke-linecap="round" stroke-linejoin="round" stroke-width="1.4"/>
      <circle id="Ellipse_409" data-name="Ellipse 409" cx="1.289" cy="1.289" r="1.289" transform="translate(1353.442 2150.016)" fill="none" stroke="#03cbff" stroke-linecap="round" stroke-linejoin="round" stroke-width="1.4"/>
      <rect id="Rectangle_2677" data-name="Rectangle 2677" width="5.158" height="5.158" rx="2" transform="translate(1346.013 2142.28)" fill="none" stroke="#03cbff" stroke-linecap="round" stroke-linejoin="round" stroke-width="1.4"/>
      <line id="Line_594" data-name="Line 594" y1="1.289" transform="translate(1348.546 2142.28)" fill="none" stroke="#03cbff" stroke-linecap="round" stroke-linejoin="round" stroke-width="1.4"/>
      <path id="Path_7388" data-name="Path 7388" d="M94.479,36.443H96.8a1.289,1.289,0,0,1,1.289,1.289v2.385" transform="translate(1258.862 2105.837)" fill="none" stroke="#03cbff" stroke-linecap="round" stroke-linejoin="round" stroke-width="1.4"/>
    </g>
  </g>
</svg>
