<svg xmlns="http://www.w3.org/2000/svg" width="50" height="50" viewBox="0 0 50 50">
  <g id="Group_6516" data-name="Group 6516" transform="translate(0.269)">
    <circle id="Ellipse_387" data-name="Ellipse 387" cx="25" cy="25" r="25" transform="translate(-0.269)" fill="#0a64f9"/>
    <g id="Group_6467" data-name="Group 6467" transform="translate(15.169 15.169)">
      <path id="Path_7364" data-name="Path 7364" d="M833.9,68.6h2.729a1.586,1.586,0,1,0,0-3.173H833.9" transform="translate(-818.245 -55.022)" fill="none" stroke="#fff" stroke-linecap="round" stroke-linejoin="round" stroke-width="2"/>
      <path id="Path_7365" data-name="Path 7365" d="M833.9,87.06h2.6a1.586,1.586,0,0,0,0-3.173" transform="translate(-818.245 -70.306)" fill="none" stroke="#fff" stroke-linecap="round" stroke-linejoin="round" stroke-width="2"/>
      <path id="Path_7366" data-name="Path 7366" d="M795.7,15.3a1.586,1.586,0,1,0,0-3.173l-5.605,0a17.09,17.09,0,0,0,1.811-4.552,1.991,1.991,0,0,0-1.066-2.537,1.7,1.7,0,0,0-2.3,1.066,22.337,22.337,0,0,1-.979,2.47,11.369,11.369,0,0,1-2.315,2.792" transform="translate(-777.955 -4.887)" fill="none" stroke="#fff" stroke-linecap="round" stroke-linejoin="round" stroke-width="2"/>
      <path id="Path_7367" data-name="Path 7367" d="M747.419,51.4h-2.284a2.284,2.284,0,0,0-2.284,2.284v7.4a2.284,2.284,0,0,0,2.284,2.284H750.8l9.117,0a1.586,1.586,0,0,0,1.586-1.586,1.625,1.625,0,0,0-1.586-1.63" transform="translate(-742.85 -43.4)" fill="none" stroke="#fff" stroke-linecap="round" stroke-linejoin="round" stroke-width="2"/>
      <path id="Path_7368" data-name="Path 7368" d="M769.426,75.478V69.851" transform="translate(-764.857 -58.683)" fill="none" stroke="#fff" stroke-linecap="round" stroke-linejoin="round" stroke-width="2"/>
    </g>
  </g>
</svg>
